<svg width="155" height="156" viewBox="0 0 155 156" fill="none" xmlns="http://www.w3.org/2000/svg">
<mask id="mask0_120_2482" style="mask-type:alpha" maskUnits="userSpaceOnUse" x="4" y="-148" width="147" height="296">
<rect x="151" y="-148" width="295.985" height="146.721" transform="rotate(90 151 -148)" fill="#C4C4C4"/>
</mask>
<g mask="url(#mask0_120_2482)">
<path d="M3.27808 -420.42L-519.452 108.695" stroke="#CEDBFD" stroke-width="9.32905"/>
<path d="M262.707 -164.121L-260.023 364.994" stroke="#CEDBFD" stroke-width="9.32905"/>
<path d="M29.221 -394.79L-493.509 134.325" stroke="#CEDBFD" stroke-width="9.32905"/>
<path d="M288.65 -138.491L-234.08 390.623" stroke="#CEDBFD" stroke-width="9.32905"/>
<path d="M55.1639 -369.16L-467.566 159.954" stroke="#CEDBFD" stroke-width="9.32905"/>
<path d="M314.593 -112.861L-208.137 416.253" stroke="#CEDBFD" stroke-width="9.32905"/>
<path d="M81.1068 -343.53L-441.623 185.584" stroke="#CEDBFD" stroke-width="9.32905"/>
<path d="M340.536 -87.2314L-182.194 441.883" stroke="#CEDBFD" stroke-width="9.32905"/>
<path d="M107.05 -317.9L-415.68 211.214" stroke="#CEDBFD" stroke-width="9.32905"/>
<path d="M366.479 -61.6016L-156.251 467.513" stroke="#CEDBFD" stroke-width="9.32905"/>
<path d="M132.993 -292.271L-389.737 236.844" stroke="#CEDBFD" stroke-width="9.32905"/>
<path d="M392.422 -35.9717L-130.308 493.143" stroke="#CEDBFD" stroke-width="9.32905"/>
<path d="M158.936 -266.641L-363.794 262.474" stroke="#CEDBFD" stroke-width="9.32905"/>
<path d="M418.365 -10.3418L-104.365 518.773" stroke="#CEDBFD" stroke-width="9.32905"/>
<path d="M184.878 -241.011L-337.851 288.104" stroke="#CEDBFD" stroke-width="9.32905"/>
<path d="M444.308 15.2871L-78.4224 544.402" stroke="#CEDBFD" stroke-width="9.32905"/>
<path d="M210.821 -215.381L-311.909 313.734" stroke="#CEDBFD" stroke-width="9.32905"/>
<path d="M470.25 40.918L-52.4795 570.033" stroke="#CEDBFD" stroke-width="9.32905"/>
<path d="M236.764 -189.751L-285.966 339.364" stroke="#CEDBFD" stroke-width="9.32905"/>
<path d="M496.193 66.5469L-26.5367 595.662" stroke="#CEDBFD" stroke-width="9.32905"/>
</g>
</svg>
