<svg width="147" height="122" viewBox="0 0 147 122" fill="none" xmlns="http://www.w3.org/2000/svg">
<mask id="mask0_120_2505" style="mask-type:alpha" maskUnits="userSpaceOnUse" x="0" y="0" width="147" height="296">
<rect x="147" width="295.985" height="146.721" transform="rotate(90 147 0)" fill="#C4C4C4"/>
</mask>
<g mask="url(#mask0_120_2505)">
<path d="M-0.721924 -272.42L-523.452 256.695" stroke="#CEDBFD" stroke-width="9.32905"/>
<path d="M258.707 -16.1211L-264.023 512.994" stroke="#CEDBFD" stroke-width="9.32905"/>
<path d="M25.221 -246.79L-497.509 282.325" stroke="#CEDBFD" stroke-width="9.32905"/>
<path d="M284.65 9.50879L-238.08 538.623" stroke="#CEDBFD" stroke-width="9.32905"/>
<path d="M51.1639 -221.16L-471.566 307.954" stroke="#CEDBFD" stroke-width="9.32905"/>
<path d="M310.593 35.1387L-212.137 564.253" stroke="#CEDBFD" stroke-width="9.32905"/>
<path d="M77.1068 -195.53L-445.623 333.584" stroke="#CEDBFD" stroke-width="9.32905"/>
<path d="M336.536 60.7686L-186.194 589.883" stroke="#CEDBFD" stroke-width="9.32905"/>
<path d="M103.05 -169.9L-419.68 359.214" stroke="#CEDBFD" stroke-width="9.32905"/>
<path d="M362.479 86.3984L-160.251 615.513" stroke="#CEDBFD" stroke-width="9.32905"/>
<path d="M128.993 -144.271L-393.737 384.844" stroke="#CEDBFD" stroke-width="9.32905"/>
<path d="M388.422 112.028L-134.308 641.143" stroke="#CEDBFD" stroke-width="9.32905"/>
<path d="M154.936 -118.641L-367.794 410.474" stroke="#CEDBFD" stroke-width="9.32905"/>
<path d="M180.878 -93.0107L-341.851 436.104" stroke="#CEDBFD" stroke-width="9.32905"/>
<path d="M206.821 -67.3809L-315.909 461.734" stroke="#CEDBFD" stroke-width="9.32905"/>
<path d="M232.764 -41.751L-289.966 487.364" stroke="#CEDBFD" stroke-width="9.32905"/>
</g>
</svg>
