<svg width="428" height="436" viewBox="0 0 428 436" fill="none" xmlns="http://www.w3.org/2000/svg">
<rect x="-126.469" width="675.669" height="912" fill="#FFC3C3"/>
<path d="M211.366 442C211.366 360.262 277.627 294 359.366 294H549.2V911.5H211.366L211.366 442Z" fill="#413EB1"/>
<path fill-rule="evenodd" clip-rule="evenodd" d="M548.616 159.149C549.003 155.143 549.2 151.091 549.2 147C549.2 142.909 549.003 138.857 548.616 134.851V0H377.47L377.478 0.00741149C376.892 0.00247437 376.305 0 375.718 0C279.906 0 202.235 65.8141 202.235 147C202.235 228.186 279.906 294 375.718 294C466.437 294 540.892 234.996 548.551 159.808L548.616 159.869V159.149Z" fill="#5182E6"/>
<path fill-rule="evenodd" clip-rule="evenodd" d="M211.839 589.701L209.903 446.336L209.895 446.343C209.894 445.852 209.89 445.361 209.883 444.869C208.8 364.61 132.761 300.326 40.0462 301.286C-52.6689 302.247 -126.951 368.089 -125.868 448.348C-124.842 524.341 -56.6174 586.012 29.335 591.538L29.2669 591.592L30.0789 591.584C34.6617 591.861 39.2943 591.978 43.9694 591.93C48.6444 591.882 53.2726 591.668 57.8466 591.296L211.839 589.701Z" fill="#FD7B7E"/>
<path d="M202.235 153C202.235 234.738 135.973 301 54.2349 301L-127.61 301L-127.61 -5.2524e-06L202.235 -3.05176e-05L202.235 153Z" fill="#3A4269"/>
<path fill-rule="evenodd" clip-rule="evenodd" d="M-127.334 77.9514C-127.517 75.9888 -127.611 74.004 -127.611 72C-127.611 69.996 -127.517 68.0112 -127.334 66.0486V0H-46.2646L-46.2683 0.00362942C-45.9907 0.0012117 -45.7128 0 -45.4345 0C-0.0499916 0 36.7415 32.2355 36.7415 72C36.7415 111.765 -0.0499916 144 -45.4345 144C-88.4068 144 -123.675 115.1 -127.303 78.2732L-127.334 78.303V77.9514Z" fill="#CEDBFD"/>
<ellipse cx="207.371" cy="297.5" rx="70.192" ry="62.5" fill="white"/>
<ellipse cx="346.043" cy="422" rx="29.6747" ry="26" fill="#FD7B7E"/>
</svg>
