<svg width="380" height="77" viewBox="0 0 380 77" fill="none" xmlns="http://www.w3.org/2000/svg">
<path d="M0.367889 0.655998L6.70389 26H15.3439L17.7199 10.844C17.8639 9.908 17.9359 8.756 17.9359 7.604C17.9359 7.244 18.0079 6.848 18.5119 6.848C19.0159 6.848 19.0879 7.244 19.0879 7.604C19.0879 8.756 19.1599 9.908 19.3039 10.844L21.6799 26H30.3199L36.6559 0.655998H30.3199L26.7559 18.296C26.5399 19.412 26.4319 20.528 26.4319 21.356C26.4319 21.716 26.3599 22.112 25.8559 22.112C25.3519 22.112 25.2799 21.716 25.2799 21.356C25.2799 20.528 25.2079 19.412 25.0279 18.296L21.9679 0.655998H15.0559L11.9959 18.296C11.7799 19.412 11.7439 20.528 11.7439 21.356C11.7439 21.716 11.6719 22.112 11.1679 22.112C10.6639 22.112 10.5919 21.716 10.5919 21.356C10.5559 20.528 10.4839 19.412 10.2679 18.296L6.70389 0.655998H0.367889ZM54.1288 15.92C54.1288 9.368 49.4128 6.416 44.5888 6.416C38.2168 6.416 34.5448 10.592 34.5448 16.496C34.5448 22.112 38.0728 26.576 44.6968 26.576C50.0608 26.576 53.0128 23.264 53.7688 19.664H48.0448C47.5768 21.068 46.4608 21.968 44.6608 21.968C42.2488 21.968 40.6288 20.348 40.2328 17.936H54.0208C54.0928 17.396 54.1288 16.46 54.1288 15.92ZM44.6968 10.88C46.8208 10.88 48.2608 12.176 48.4768 14.48H40.3768C40.8088 12.428 41.9608 10.88 44.6968 10.88ZM79.3381 0.079999V7.568C79.3381 8.108 79.4821 8.648 79.7341 9.152C80.0221 9.764 80.4901 10.412 80.0221 10.628C79.5901 10.844 79.3381 10.34 79.1941 10.088C77.9701 7.928 76.0981 6.416 73.2181 6.416C67.9981 6.416 64.9381 10.88 64.9381 16.496C64.9381 22.112 67.9981 26.576 73.2181 26.576C76.0621 26.576 78.0421 25.172 79.1941 22.868C79.3021 22.652 79.4821 22.256 79.8421 22.364C80.3821 22.544 80.0581 23.156 79.7701 23.768C79.5181 24.308 79.3381 24.776 79.3381 25.316V26H85.0981V0.079999H79.3381ZM74.8741 21.68C71.9941 21.68 70.6981 19.268 70.6981 16.496C70.6981 13.724 71.9941 11.312 74.8741 11.312C77.6101 11.312 79.3381 13.724 79.3381 16.496C79.3381 19.268 77.6101 21.68 74.8741 21.68ZM106.064 15.92C106.064 9.368 101.348 6.416 96.5245 6.416C90.1524 6.416 86.4804 10.592 86.4804 16.496C86.4804 22.112 90.0084 26.576 96.6324 26.576C101.996 26.576 104.948 23.264 105.704 19.664H99.9805C99.5125 21.068 98.3964 21.968 96.5965 21.968C94.1844 21.968 92.5644 20.348 92.1684 17.936H105.956C106.028 17.396 106.064 16.46 106.064 15.92ZM96.6324 10.88C98.7565 10.88 100.196 12.176 100.412 14.48H92.3124C92.7444 12.428 93.8965 10.88 96.6324 10.88ZM106.863 19.376C107.115 23.84 110.211 26.576 116.043 26.576C121.839 26.576 125.295 23.804 125.295 20.168C125.295 16.064 121.983 14.408 116.727 13.904C113.595 13.616 113.199 13.004 113.199 12.356C113.199 11.42 113.991 10.736 116.043 10.736C118.131 10.736 118.959 11.636 119.031 13.04H124.719C124.431 8.504 120.723 6.416 116.151 6.416C110.463 6.416 107.439 9.404 107.439 12.608C107.439 14.588 107.979 17.936 114.603 18.692C117.807 19.052 119.535 19.376 119.535 20.528C119.535 21.5 118.671 22.256 116.187 22.256C113.451 22.256 112.587 20.852 112.551 19.376H106.863ZM126.955 4.688H132.715V0.079999H126.955V4.688ZM126.955 26H132.715V6.992H126.955V26ZM134.373 16.064C134.373 21.608 137.433 25.712 142.653 25.712C145.497 25.712 147.441 24.704 148.629 22.544C148.773 22.292 148.953 21.968 149.349 22.112C149.817 22.292 149.565 22.832 149.205 23.48C148.917 23.984 148.773 24.488 148.773 25.028C148.773 27.332 147.981 29.168 144.561 29.168C141.897 29.168 140.853 28.268 140.565 26.864H134.949C135.489 31.148 138.585 33.488 144.561 33.488C150.573 33.488 154.533 30.68 154.533 24.704V6.992H148.773V7.568C148.773 8.108 148.917 8.648 149.169 9.152C149.457 9.764 149.745 10.376 149.205 10.52C148.881 10.592 148.737 10.268 148.629 10.088C147.441 7.928 145.533 6.416 142.653 6.416C137.433 6.416 134.373 10.52 134.373 16.064ZM144.309 20.816C141.429 20.816 140.133 18.62 140.133 16.064C140.133 13.508 141.429 11.312 144.309 11.312C147.045 11.312 148.773 13.508 148.773 16.064C148.773 18.62 147.045 20.816 144.309 20.816ZM169.517 6.416C166.241 6.416 164.117 8.972 163.217 10.88C163.073 11.168 162.893 11.6 162.461 11.42C161.993 11.24 162.353 10.52 162.641 9.944C162.929 9.368 163.109 8.756 163.109 7.892V6.992H157.349V26H163.109V18.692C163.109 14.3 165.233 11.312 167.573 11.312C169.625 11.312 170.597 12.5 170.597 16.784V26H176.357V14.48C176.357 9.08 173.621 6.416 169.517 6.416ZM186.598 6.992L191.782 26H199.558L201.106 15.596C201.214 14.768 201.25 13.328 201.286 12.356C201.286 11.996 201.394 11.6 201.862 11.6C202.33 11.6 202.438 11.996 202.438 12.356C202.474 13.328 202.51 14.768 202.618 15.596L204.166 26H211.942L217.126 6.992H211.078L208.81 18.8C208.666 19.556 208.63 20.456 208.63 21.212C208.63 21.572 208.522 21.968 208.054 21.968C207.586 21.968 207.478 21.572 207.478 21.212C207.478 20.456 207.442 19.556 207.298 18.8L205.318 6.992H198.406L196.426 18.8C196.282 19.556 196.246 20.456 196.246 21.212C196.246 21.572 196.138 21.968 195.67 21.968C195.202 21.968 195.094 21.572 195.094 21.212C195.094 20.456 195.058 19.556 194.914 18.8L192.646 6.992H186.598ZM226.298 6.416C220.034 6.416 216.218 10.952 216.218 16.496C216.218 22.04 220.034 26.576 226.298 26.576C232.562 26.576 236.378 22.04 236.378 16.496C236.378 10.952 232.562 6.416 226.298 6.416ZM226.298 21.68C223.454 21.68 221.978 19.304 221.978 16.496C221.978 13.688 223.454 11.312 226.298 11.312C229.142 11.312 230.618 13.688 230.618 16.496C230.618 19.304 229.142 21.68 226.298 21.68ZM243.044 11.06C242.504 10.952 242.72 10.304 243.008 9.728C243.296 9.152 243.512 8.504 243.512 7.856V6.992H237.752V26H243.512V18.62C243.512 13.796 245.204 11.888 250.424 12.248V6.704C245.852 6.704 244.772 8.036 243.656 10.556C243.548 10.808 243.368 11.132 243.044 11.06ZM252.228 0.079999V26H257.988V0.079999H252.228ZM274.046 0.079999V7.568C274.046 8.108 274.19 8.648 274.442 9.152C274.73 9.764 275.198 10.412 274.73 10.628C274.298 10.844 274.046 10.34 273.902 10.088C272.678 7.928 270.806 6.416 267.926 6.416C262.706 6.416 259.646 10.88 259.646 16.496C259.646 22.112 262.706 26.576 267.926 26.576C270.77 26.576 272.75 25.172 273.902 22.868C274.01 22.652 274.19 22.256 274.55 22.364C275.09 22.544 274.766 23.156 274.478 23.768C274.226 24.308 274.046 24.776 274.046 25.316V26H279.806V0.079999H274.046ZM269.582 21.68C266.702 21.68 265.406 19.268 265.406 16.496C265.406 13.724 266.702 11.312 269.582 11.312C272.318 11.312 274.046 13.724 274.046 16.496C274.046 19.268 272.318 21.68 269.582 21.68ZM282.255 18.548V14.156H291.687V18.548H282.255ZM292.992 16.496C292.992 22.04 296.808 26.576 303.216 26.576C309.012 26.576 312.288 22.58 312.576 18.44L306.888 18.404C306.564 20.168 305.34 21.68 303.252 21.68C300.48 21.68 298.752 19.304 298.752 16.496C298.752 13.688 300.48 11.312 303.252 11.312C305.34 11.312 306.564 12.788 306.888 14.552L312.576 14.516C312.288 10.376 308.976 6.416 303.216 6.416C296.7 6.416 292.992 10.952 292.992 16.496ZM313.964 0.079999V26H319.724V0.079999H313.964ZM321.382 20.924C321.382 24.092 324.154 26.576 328.006 26.576C331.174 26.576 333.298 24.884 334.486 22.544C334.63 22.292 334.774 21.86 335.242 22.076C335.638 22.256 335.314 22.832 335.026 23.444C334.774 23.948 334.63 24.452 334.63 25.028V26H340.39V15.488C340.39 7.856 336.034 6.416 331.534 6.416C327.286 6.416 322.606 8.252 321.958 13.328H327.646C327.934 11.888 328.798 10.736 331.39 10.736C334.018 10.736 334.594 12.104 334.63 13.184C334.666 14.804 332.254 14.588 328.87 14.804C324.766 15.056 321.382 16.64 321.382 20.924ZM334.63 16.784C334.594 20.708 331.93 22.256 330.202 22.544C328.654 22.796 327.142 22.112 327.142 20.528C327.142 18.908 328.33 18.296 329.662 18.152C332.362 17.828 333.694 17.756 334.63 16.784ZM341.764 19.376C342.016 23.84 345.112 26.576 350.944 26.576C356.74 26.576 360.196 23.804 360.196 20.168C360.196 16.064 356.884 14.408 351.628 13.904C348.496 13.616 348.1 13.004 348.1 12.356C348.1 11.42 348.892 10.736 350.944 10.736C353.032 10.736 353.86 11.636 353.932 13.04H359.62C359.332 8.504 355.624 6.416 351.052 6.416C345.364 6.416 342.34 9.404 342.34 12.608C342.34 14.588 342.88 17.936 349.504 18.692C352.708 19.052 354.436 19.376 354.436 20.528C354.436 21.5 353.572 22.256 351.088 22.256C348.352 22.256 347.488 20.852 347.452 19.376H341.764ZM360.986 19.376C361.238 23.84 364.334 26.576 370.166 26.576C375.962 26.576 379.418 23.804 379.418 20.168C379.418 16.064 376.106 14.408 370.85 13.904C367.718 13.616 367.322 13.004 367.322 12.356C367.322 11.42 368.114 10.736 370.166 10.736C372.254 10.736 373.082 11.636 373.154 13.04H378.842C378.554 8.504 374.846 6.416 370.274 6.416C364.586 6.416 361.562 9.404 361.562 12.608C361.562 14.588 362.102 17.936 368.726 18.692C371.93 19.052 373.658 19.376 373.658 20.528C373.658 21.5 372.794 22.256 370.31 22.256C367.574 22.256 366.71 20.852 366.674 19.376H360.986ZM66.3697 43.08V50.568C66.3697 51.108 66.5137 51.648 66.7657 52.152C67.0537 52.764 67.5217 53.412 67.0537 53.628C66.6217 53.844 66.3697 53.34 66.2257 53.088C65.0017 50.928 63.1297 49.416 60.2497 49.416C55.0297 49.416 51.9697 53.88 51.9697 59.496C51.9697 65.112 55.0297 69.576 60.2497 69.576C63.0937 69.576 65.0737 68.172 66.2257 65.868C66.3337 65.652 66.5137 65.256 66.8737 65.364C67.4137 65.544 67.0897 66.156 66.8017 66.768C66.5497 67.308 66.3697 67.776 66.3697 68.316V69H72.1297V43.08H66.3697ZM61.9057 64.68C59.0257 64.68 57.7297 62.268 57.7297 59.496C57.7297 56.724 59.0257 54.312 61.9057 54.312C64.6417 54.312 66.3697 56.724 66.3697 59.496C66.3697 62.268 64.6417 64.68 61.9057 64.68ZM74.9453 47.688H80.7053V43.08H74.9453V47.688ZM74.9453 69H80.7053V49.992H74.9453V69ZM82.363 59.064C82.363 64.608 85.423 68.712 90.643 68.712C93.487 68.712 95.431 67.704 96.619 65.544C96.763 65.292 96.943 64.968 97.339 65.112C97.807 65.292 97.555 65.832 97.195 66.48C96.907 66.984 96.763 67.488 96.763 68.028C96.763 70.332 95.971 72.168 92.551 72.168C89.887 72.168 88.843 71.268 88.555 69.864H82.939C83.479 74.148 86.575 76.488 92.551 76.488C98.563 76.488 102.523 73.68 102.523 67.704V49.992H96.763V50.568C96.763 51.108 96.907 51.648 97.159 52.152C97.447 52.764 97.735 53.376 97.195 53.52C96.871 53.592 96.727 53.268 96.619 53.088C95.431 50.928 93.523 49.416 90.643 49.416C85.423 49.416 82.363 53.52 82.363 59.064ZM92.299 63.816C89.419 63.816 88.123 61.62 88.123 59.064C88.123 56.508 89.419 54.312 92.299 54.312C95.035 54.312 96.763 56.508 96.763 59.064C96.763 61.62 95.035 63.816 92.299 63.816ZM105.339 47.688H111.099V43.08H105.339V47.688ZM105.339 69H111.099V49.992H105.339V69ZM126.299 54.6V49.992H121.115V44.808H115.355V49.992H111.899V54.6H115.355V63.168C115.355 67.74 117.155 69 120.971 69H126.299V64.392H122.843C121.187 64.392 121.115 64.32 121.115 62.52V54.6H126.299ZM127.654 63.924C127.654 67.092 130.426 69.576 134.278 69.576C137.446 69.576 139.57 67.884 140.758 65.544C140.902 65.292 141.046 64.86 141.514 65.076C141.91 65.256 141.586 65.832 141.298 66.444C141.046 66.948 140.902 67.452 140.902 68.028V69H146.662V58.488C146.662 50.856 142.306 49.416 137.806 49.416C133.558 49.416 128.878 51.252 128.23 56.328H133.918C134.206 54.888 135.07 53.736 137.662 53.736C140.29 53.736 140.866 55.104 140.902 56.184C140.938 57.804 138.526 57.588 135.142 57.804C131.038 58.056 127.654 59.64 127.654 63.924ZM140.902 59.784C140.866 63.708 138.202 65.256 136.474 65.544C134.926 65.796 133.414 65.112 133.414 63.528C133.414 61.908 134.602 61.296 135.934 61.152C138.634 60.828 139.966 60.756 140.902 59.784ZM149.469 43.08V69H155.229V43.08H149.469ZM174.092 49.992H168.332V75.912H174.092V68.316C174.092 67.776 173.948 67.272 173.66 66.768C173.372 66.156 173.048 65.544 173.588 65.364C173.948 65.256 174.128 65.652 174.236 65.868C175.424 68.136 177.368 69.576 180.212 69.576C185.432 69.576 188.492 65.112 188.492 59.496C188.492 53.88 185.432 49.416 180.212 49.416C177.332 49.416 175.424 50.892 174.236 53.088C174.092 53.34 173.84 53.844 173.408 53.628C172.94 53.412 173.408 52.764 173.696 52.152C173.948 51.648 174.092 51.108 174.092 50.568V49.992ZM178.556 64.68C175.82 64.68 174.092 62.268 174.092 59.496C174.092 56.724 175.82 54.312 178.556 54.312C181.436 54.312 182.732 56.724 182.732 59.496C182.732 62.268 181.436 64.68 178.556 64.68ZM195.447 54.06C194.907 53.952 195.123 53.304 195.411 52.728C195.699 52.152 195.915 51.504 195.915 50.856V49.992H190.155V69H195.915V61.62C195.915 56.796 197.607 54.888 202.827 55.248V49.704C198.255 49.704 197.175 51.036 196.059 53.556C195.951 53.808 195.771 54.132 195.447 54.06ZM212.68 49.416C206.416 49.416 202.6 53.952 202.6 59.496C202.6 65.04 206.416 69.576 212.68 69.576C218.944 69.576 222.76 65.04 222.76 59.496C222.76 53.952 218.944 49.416 212.68 49.416ZM212.68 64.68C209.836 64.68 208.36 62.304 208.36 59.496C208.36 56.688 209.836 54.312 212.68 54.312C215.524 54.312 217 56.688 217 59.496C217 62.304 215.524 64.68 212.68 64.68ZM238.226 43.08V50.568C238.226 51.108 238.37 51.648 238.622 52.152C238.91 52.764 239.378 53.412 238.91 53.628C238.478 53.844 238.226 53.34 238.082 53.088C236.858 50.928 234.986 49.416 232.106 49.416C226.886 49.416 223.826 53.88 223.826 59.496C223.826 65.112 226.886 69.576 232.106 69.576C234.95 69.576 236.93 68.172 238.082 65.868C238.19 65.652 238.37 65.256 238.73 65.364C239.27 65.544 238.946 66.156 238.658 66.768C238.406 67.308 238.226 67.776 238.226 68.316V69H243.986V43.08H238.226ZM233.762 64.68C230.882 64.68 229.586 62.268 229.586 59.496C229.586 56.724 230.882 54.312 233.762 54.312C236.498 54.312 238.226 56.724 238.226 59.496C238.226 62.268 236.498 64.68 233.762 64.68ZM253.066 69.576C256.342 69.576 258.43 66.984 259.366 65.112C259.51 64.824 259.69 64.392 260.122 64.572C260.59 64.752 260.23 65.472 259.942 66.048C259.654 66.624 259.474 67.236 259.474 68.1V69H265.234V49.992H259.474V57.3C259.474 61.692 257.35 64.68 255.01 64.68C252.958 64.68 251.986 63.492 251.986 59.208V49.992H246.226V61.512C246.226 66.912 248.962 69.576 253.066 69.576ZM266.63 59.496C266.63 65.04 270.446 69.576 276.854 69.576C282.65 69.576 285.926 65.58 286.214 61.44L280.526 61.404C280.202 63.168 278.978 64.68 276.89 64.68C274.118 64.68 272.39 62.304 272.39 59.496C272.39 56.688 274.118 54.312 276.89 54.312C278.978 54.312 280.202 55.788 280.526 57.552L286.214 57.516C285.926 53.376 282.614 49.416 276.854 49.416C270.338 49.416 266.63 53.952 266.63 59.496ZM299.957 54.6V49.992H294.773V44.808H289.013V49.992H285.557V54.6H289.013V63.168C289.013 67.74 290.813 69 294.629 69H299.957V64.392H296.501C294.845 64.392 294.773 64.32 294.773 62.52V54.6H299.957ZM301.312 62.376C301.564 66.84 304.66 69.576 310.492 69.576C316.288 69.576 319.744 66.804 319.744 63.168C319.744 59.064 316.432 57.408 311.176 56.904C308.044 56.616 307.648 56.004 307.648 55.356C307.648 54.42 308.44 53.736 310.492 53.736C312.58 53.736 313.408 54.636 313.48 56.04H319.168C318.88 51.504 315.172 49.416 310.6 49.416C304.912 49.416 301.888 52.404 301.888 55.608C301.888 57.588 302.428 60.936 309.052 61.692C312.256 62.052 313.984 62.376 313.984 63.528C313.984 64.5 313.12 65.256 310.636 65.256C307.9 65.256 307.036 63.852 307 62.376H301.312ZM321.11 62.664V69H327.446V62.664H321.11Z" fill="white"/>
</svg>
