<svg width="63" height="23" viewBox="0 0 63 23" fill="none" xmlns="http://www.w3.org/2000/svg">
<path d="M5.08594 18.2461C8.82422 18.2461 10.6992 16.043 10.6992 11.6133V0.949219H6.15234V11.9414C6.15234 12.6445 6 13.1719 5.71875 13.5C5.42578 13.8281 5.07422 13.9922 4.66406 13.9922C3.96094 13.9922 3.31641 13.6055 2.75391 12.832L0.0820312 15.8672C0.667969 16.6406 1.41797 17.2383 2.30859 17.6367C3.19922 18.0469 4.125 18.2461 5.08594 18.2461ZM19.0997 6.24609V12.1523C19.0997 12.9258 18.9473 13.5 18.6544 13.8867C18.3614 14.2734 17.9747 14.4609 17.5059 14.4609C16.9552 14.4609 16.5567 14.2852 16.3223 13.9102C16.088 13.5352 15.9708 12.9375 15.9708 12.0938V6.24609H11.6934V13.125C11.6934 16.5469 13.0763 18.2461 15.8536 18.2461C16.4864 18.2461 17.0723 18.1289 17.6231 17.8711C18.1739 17.6133 18.6544 17.2383 19.0528 16.7461H19.0997V18H23.4005V6.24609H19.0997ZM31.8595 6C30.5705 6 29.5275 6.48047 28.7072 7.42969H28.672V6.24609H24.3713V22.7461H28.6486V16.9805H28.6838C29.422 17.8242 30.3947 18.2461 31.6017 18.2461C32.6564 18.2461 33.6056 18 34.4377 17.4844C35.258 16.9688 35.9025 16.2539 36.3713 15.3164C36.8283 14.3789 37.0627 13.3125 37.0627 12.1172C37.0627 11.5312 36.9923 10.957 36.8752 10.418C36.758 9.87891 36.5822 9.375 36.3595 8.92969C36.1369 8.48438 35.8673 8.07422 35.5627 7.71094C35.2463 7.34766 34.8947 7.04297 34.5197 6.78516C34.133 6.53906 33.7111 6.35156 33.2658 6.21094C32.8088 6.07031 32.34 6 31.8595 6ZM30.6525 14.4961C30.0197 14.4961 29.4923 14.2852 29.0939 13.8516C28.6838 13.418 28.4845 12.8438 28.4845 12.1289C28.4845 11.4375 28.6838 10.875 29.0939 10.4297C29.4923 9.99609 30.0197 9.77344 30.6525 9.77344C31.2619 9.77344 31.7541 9.99609 32.1525 10.4297C32.5392 10.875 32.7384 11.4375 32.7384 12.1289C32.7384 12.8438 32.5392 13.418 32.1525 13.8516C31.7541 14.2852 31.2619 14.4961 30.6525 14.4961ZM39.8381 4.91016C40.553 4.91016 41.1389 4.69922 41.6077 4.25391C42.0647 3.82031 42.2991 3.26953 42.2991 2.58984C42.2991 1.93359 42.0647 1.39453 41.6077 0.960938C41.1389 0.527344 40.553 0.304688 39.8381 0.304688C39.3694 0.304688 38.9358 0.410156 38.5608 0.609375C38.1858 0.820312 37.8928 1.08984 37.6819 1.44141C37.4709 1.79297 37.3772 2.16797 37.3772 2.58984C37.3772 3.25781 37.5998 3.80859 38.0686 4.25391C38.5256 4.69922 39.1116 4.91016 39.8381 4.91016ZM37.6936 18H41.9709V6.24609H37.6936V18ZM47.1136 18.2461C47.887 18.2461 48.5316 18.1758 49.0355 18.0352C49.5277 17.8945 50.0316 17.6719 50.5472 17.3789L49.5042 14.3906C49.223 14.5195 48.9417 14.5781 48.637 14.5781C48.473 14.5781 48.3323 14.543 48.2152 14.4727C48.098 14.4023 48.0277 14.3086 47.9808 14.1797C47.9339 14.0625 47.8988 13.9336 47.887 13.8164C47.8636 13.6992 47.8636 13.5469 47.8636 13.3828V9.64453H50.4183V6.24609H47.8636V2.10938L43.5863 2.55469V6.24609H42.3089V9.64453H43.5863V14.3086C43.5863 14.9648 43.6683 15.5508 43.8558 16.0547C44.0316 16.5703 44.2777 16.9805 44.5941 17.2969C44.9105 17.6133 45.2855 17.8477 45.7073 18.0117C46.1292 18.1758 46.598 18.2461 47.1136 18.2461ZM58.2914 6.24609V7.40625H58.2562C57.4359 6.46875 56.4281 6 55.2094 6C54.4828 6 53.7914 6.15234 53.1586 6.45703C52.5141 6.76172 51.9633 7.17188 51.4945 7.69922C51.0258 8.23828 50.6625 8.88281 50.4047 9.64453C50.1352 10.418 50.0062 11.2383 50.0062 12.1172C50.0062 13.0195 50.1352 13.8516 50.4047 14.6133C50.6742 15.375 51.0492 16.0195 51.5297 16.5469C51.9984 17.0859 52.5727 17.4961 53.2523 17.8008C53.932 18.1055 54.6703 18.2461 55.4672 18.2461C56.7797 18.2461 57.7875 17.8008 58.4906 16.8984H58.5258V18H62.5922V6.24609H58.2914ZM56.4164 14.4961C55.807 14.4961 55.3031 14.2852 54.9164 13.8516C54.518 13.418 54.3305 12.8438 54.3305 12.1289C54.3305 11.4375 54.518 10.875 54.9164 10.4297C55.3031 9.99609 55.807 9.77344 56.4164 9.77344C57.0023 9.77344 57.4828 9.99609 57.8812 10.4414C58.2797 10.8867 58.4789 11.4492 58.4789 12.1289C58.4789 12.832 58.2797 13.4062 57.8812 13.8398C57.4828 14.2852 57.0023 14.4961 56.4164 14.4961Z" fill="white"/>
</svg>
