<svg width="281" height="785" viewBox="0 0 281 785" fill="none" xmlns="http://www.w3.org/2000/svg">
<path d="M0.125732 486.122V339.826C124.372 347.882 145.15 438.629 146.846 486.122H0.125732Z" fill="#CEDBFD"/>
<path d="M146.846 632.843V492.907C157.872 597.647 229.536 631.146 300.776 632.843H146.846Z" fill="#CEDBFD"/>
<path d="M569.032 485.119C569.369 485.171 569.707 485.223 570.046 485.274C676.228 501.218 613.612 491.814 569.032 485.119Z" fill="#CEDBFD"/>
<mask id="mask0_120_1933" style="mask-type:alpha" maskUnits="userSpaceOnUse" x="0" y="192" width="297" height="148">
<rect x="0.125732" y="192.681" width="295.985" height="146.721" fill="#C4C4C4"/>
</mask>
<g mask="url(#mask0_120_1933)">
<path d="M-280.775 358.754L248.339 -163.975" stroke="#CEDBFD" stroke-width="9.32905"/>
<path d="M-24.4768 618.183L504.638 95.4535" stroke="#CEDBFD" stroke-width="9.32905"/>
<path d="M-255.146 384.697L273.969 -138.033" stroke="#CEDBFD" stroke-width="9.32905"/>
<path d="M1.15308 644.126L530.268 121.396" stroke="#CEDBFD" stroke-width="9.32905"/>
<path d="M-229.516 410.64L299.599 -112.09" stroke="#CEDBFD" stroke-width="9.32905"/>
<path d="M26.783 670.069L555.898 147.339" stroke="#CEDBFD" stroke-width="9.32905"/>
<path d="M-203.886 436.583L325.229 -86.1468" stroke="#CEDBFD" stroke-width="9.32905"/>
<path d="M52.4128 696.012L581.527 173.282" stroke="#CEDBFD" stroke-width="9.32905"/>
<path d="M-178.256 462.526L350.859 -60.2039" stroke="#CEDBFD" stroke-width="9.32905"/>
<path d="M78.0426 721.955L607.157 199.225" stroke="#CEDBFD" stroke-width="9.32905"/>
<path d="M-152.626 488.469L376.488 -34.2611" stroke="#CEDBFD" stroke-width="9.32905"/>
<path d="M103.672 747.898L632.787 225.168" stroke="#CEDBFD" stroke-width="9.32905"/>
<path d="M-126.996 514.412L402.118 -8.3182" stroke="#CEDBFD" stroke-width="9.32905"/>
<path d="M129.302 773.841L658.417 251.111" stroke="#CEDBFD" stroke-width="9.32905"/>
<path d="M-101.366 540.355L427.748 17.6247" stroke="#CEDBFD" stroke-width="9.32905"/>
<path d="M154.932 799.784L684.047 277.054" stroke="#CEDBFD" stroke-width="9.32905"/>
<path d="M-75.7365 566.298L453.378 43.5677" stroke="#CEDBFD" stroke-width="9.32905"/>
<path d="M180.562 825.727L709.677 302.997" stroke="#CEDBFD" stroke-width="9.32905"/>
<path d="M-50.1067 592.24L479.008 69.5105" stroke="#CEDBFD" stroke-width="9.32905"/>
<path d="M206.192 851.67L735.306 328.94" stroke="#CEDBFD" stroke-width="9.32905"/>
</g>
</svg>
