<svg xmlns="http://www.w3.org/2000/svg" xmlns:xlink="http://www.w3.org/1999/xlink" width="500" zoomAndPan="magnify" viewBox="0 0 375 374.999991" height="500" preserveAspectRatio="xMidYMid meet" version="1.0"><defs><g/><clipPath id="4686033c84"><path d="M 274.925781 207.582031 L 284.890625 207.582031 L 284.890625 217.550781 L 274.925781 217.550781 Z M 274.925781 207.582031 " clip-rule="nonzero"/></clipPath><clipPath id="0e5dceffc2"><path d="M 279.90625 207.582031 C 277.15625 207.582031 274.925781 209.8125 274.925781 212.566406 C 274.925781 215.316406 277.15625 217.550781 279.90625 217.550781 C 282.660156 217.550781 284.890625 215.316406 284.890625 212.566406 C 284.890625 209.8125 282.660156 207.582031 279.90625 207.582031 " clip-rule="nonzero"/></clipPath></defs><g clip-path="url(#4686033c84)"><g clip-path="url(#0e5dceffc2)"><path fill="#000000" d="M 274.925781 207.582031 L 284.890625 207.582031 L 284.890625 217.550781 L 274.925781 217.550781 Z M 274.925781 207.582031 " fill-opacity="1" fill-rule="nonzero"/></g></g><g fill="#000000" fill-opacity="1"><g transform="translate(91.644367, 200.626172)"><g><path d="M 13.679688 0.480469 C 19.339844 0.480469 24.90625 -3.167969 24.90625 -9.167969 C 24.90625 -14.589844 19.917969 -16.703125 14.589844 -18.8125 C 10.511719 -20.492188 5.566406 -22.316406 5.566406 -26.828125 C 5.566406 -30.90625 8.878906 -33.164062 12.765625 -33.164062 C 18.238281 -33.164062 21.597656 -30.1875 23.371094 -26.011719 L 23.851562 -26.15625 L 23.660156 -31.722656 C 21.789062 -32.730469 18.667969 -33.929688 14.300781 -33.929688 C 7.246094 -33.929688 2.589844 -30.378906 2.589844 -24.765625 C 2.589844 -19.675781 6.191406 -17.660156 11.855469 -15.40625 C 15.886719 -13.773438 21.789062 -11.566406 21.789062 -6.765625 C 21.789062 -2.878906 18.476562 -0.382812 14.636719 -0.382812 C 7.964844 -0.382812 4.320312 -4.65625 2.449219 -9.695312 L 1.917969 -9.597656 L 2.160156 -2.925781 C 4.414062 -1.296875 8.636719 0.480469 13.679688 0.480469 Z M 13.679688 0.480469 "/></g></g></g><g fill="#000000" fill-opacity="1"><g transform="translate(113.190445, 200.626172)"><g><path d="M 14.300781 0.480469 C 19.964844 0.480469 26.828125 -3.933594 26.828125 -12.140625 C 26.828125 -20.683594 20.253906 -24.332031 14.300781 -24.332031 C 7.726562 -24.332031 1.726562 -19.148438 1.726562 -11.664062 C 1.726562 -3.3125 8.207031 0.480469 14.300781 0.480469 Z M 5.421875 -14.398438 C 5.421875 -19.195312 7.628906 -23.226562 12.527344 -23.421875 C 18.8125 -23.757812 23.179688 -15.5 23.179688 -9.308594 C 23.179688 -4.65625 20.875 -0.527344 15.742188 -0.527344 C 9.359375 -0.527344 5.421875 -8.300781 5.421875 -14.398438 Z M 5.421875 -14.398438 "/></g></g></g><g fill="#000000" fill-opacity="1"><g transform="translate(137.183921, 200.626172)"><g><path d="M 1.871094 0 L 9.453125 0 L 9.453125 -0.625 C 7.964844 -1.054688 7.535156 -2.160156 7.535156 -6.09375 L 7.535156 -22.988281 L 13.535156 -22.988281 L 13.820312 -23.660156 L 7.535156 -23.660156 L 7.535156 -26.539062 C 7.535156 -32.585938 10.078125 -34.121094 11.710938 -35.035156 C 14.445312 -34.074219 16.507812 -33.402344 18.667969 -33.402344 C 20.636719 -33.402344 21.835938 -35.324219 21.835938 -36.1875 C 21.835938 -37.003906 20.734375 -37.433594 18.574219 -37.433594 C 10.75 -37.433594 4.175781 -30.8125 3.792969 -23.660156 L 1.246094 -23.660156 L 1.007812 -22.988281 L 3.792969 -22.988281 L 3.792969 -6.09375 C 3.792969 -2.160156 3.3125 -1.054688 1.871094 -0.625 Z M 1.871094 0 "/></g></g></g><g fill="#000000" fill-opacity="1"><g transform="translate(146.876898, 200.626172)"><g><path d="M 1.535156 0 L 9.117188 0 L 9.117188 -0.625 C 7.628906 -1.054688 7.199219 -2.160156 7.199219 -6.09375 L 7.199219 -15.644531 L 7.246094 -15.644531 C 7.390625 -17.949219 9.117188 -20.636719 10.511719 -21.644531 C 13.34375 -20.828125 15.214844 -20.300781 16.507812 -20.300781 C 18.238281 -20.300781 19.292969 -21.980469 19.292969 -23.035156 C 19.292969 -23.851562 18.09375 -24.332031 16.171875 -24.332031 C 13.871094 -24.332031 12.191406 -23.707031 10.703125 -22.605469 C 9.261719 -21.546875 7.964844 -19.917969 7.199219 -18.046875 L 7.199219 -24.042969 L 6.765625 -24.378906 L 1.535156 -22.078125 L 1.535156 -21.546875 C 2.832031 -20.972656 3.457031 -20.492188 3.457031 -17.132812 L 3.457031 -6.09375 C 3.457031 -2.160156 3.023438 -1.054688 1.535156 -0.625 Z M 1.535156 0 "/></g></g></g><g fill="#000000" fill-opacity="1"><g transform="translate(162.136506, 200.626172)"><g><path d="M 14.300781 0.480469 C 19.964844 0.480469 26.828125 -3.933594 26.828125 -12.140625 C 26.828125 -20.683594 20.253906 -24.332031 14.300781 -24.332031 C 7.726562 -24.332031 1.726562 -19.148438 1.726562 -11.664062 C 1.726562 -3.3125 8.207031 0.480469 14.300781 0.480469 Z M 5.421875 -14.398438 C 5.421875 -19.195312 7.628906 -23.226562 12.527344 -23.421875 C 18.8125 -23.757812 23.179688 -15.5 23.179688 -9.308594 C 23.179688 -4.65625 20.875 -0.527344 15.742188 -0.527344 C 9.359375 -0.527344 5.421875 -8.300781 5.421875 -14.398438 Z M 5.421875 -14.398438 "/></g></g></g><g fill="#000000" fill-opacity="1"><g transform="translate(186.129981, 200.626172)"><g><path d="M 10.847656 0.433594 C 16.605469 0.382812 19.628906 -3.023438 19.628906 -7.054688 C 19.628906 -11.855469 15.214844 -12.957031 11.566406 -14.15625 C 7.773438 -15.40625 4.703125 -16.652344 4.703125 -19.675781 C 4.703125 -22.125 6.816406 -23.707031 10.078125 -23.707031 C 13.484375 -23.707031 16.558594 -21.5 18.09375 -18.046875 L 18.574219 -18.140625 L 18.382812 -23.035156 C 16.894531 -23.660156 14.0625 -24.332031 10.941406 -24.332031 C 5.375 -24.332031 2.207031 -21.40625 2.207031 -17.613281 C 2.207031 -13.246094 5.472656 -12 10.03125 -10.558594 C 13.726562 -9.359375 17.085938 -8.253906 17.085938 -4.800781 C 17.085938 -2.113281 14.878906 -0.335938 11.902344 -0.335938 C 7.535156 -0.382812 4.128906 -3.121094 2.113281 -7.679688 L 1.679688 -7.582031 L 2.113281 -1.777344 C 3.695312 -0.71875 7.007812 0.433594 10.847656 0.433594 Z M 10.847656 0.433594 "/></g></g></g><g fill="#000000" fill-opacity="1"><g transform="translate(202.589302, 200.626172)"><g><path d="M 1.441406 9.261719 C 4.511719 9.214844 8.734375 8.207031 12.8125 -1.199219 L 20.253906 -18.382812 C 21.835938 -21.980469 23.085938 -22.941406 24.429688 -23.371094 L 24.429688 -23.996094 L 19.101562 -23.996094 L 19.101562 -23.371094 C 20.78125 -23.035156 20.875 -21.5 19.53125 -18.382812 L 13.628906 -4.65625 L 7.726562 -18.382812 C 6.191406 -21.980469 5.808594 -22.941406 7.246094 -23.371094 L 7.246094 -23.996094 L 0 -23.996094 L 0 -23.371094 C 1.007812 -22.941406 2.207031 -21.980469 3.695312 -18.382812 L 11.566406 0.0976562 C 10.367188 2.589844 8.878906 4.941406 7.199219 6.382812 C 4.992188 6 2.398438 5.277344 1.152344 5.277344 C -0.625 5.277344 -1.824219 7.007812 -1.824219 7.917969 C -1.824219 8.6875 -0.433594 9.308594 1.441406 9.261719 Z M 1.441406 9.261719 "/></g></g></g><g fill="#000000" fill-opacity="1"><g transform="translate(221.879931, 200.626172)"><g><path d="M 1.535156 0 L 9.117188 0 L 9.117188 -0.625 C 7.679688 -1.054688 7.199219 -2.160156 7.199219 -6.09375 L 7.199219 -19.148438 C 9.648438 -21.164062 12.238281 -22.75 14.878906 -22.75 C 19.101562 -22.75 21.210938 -20.011719 21.210938 -15.023438 L 21.210938 -6.09375 C 21.210938 -2.160156 20.78125 -1.054688 19.292969 -0.625 L 19.292969 0 L 26.875 0 L 26.875 -0.625 C 25.386719 -1.054688 24.957031 -2.160156 24.957031 -6.09375 L 24.957031 -15.980469 C 24.957031 -21.597656 22.078125 -24.332031 17.375 -24.332031 C 13.679688 -24.332031 9.984375 -22.171875 7.199219 -19.917969 L 7.199219 -24.042969 L 6.816406 -24.378906 L 1.535156 -22.078125 L 1.535156 -21.546875 C 2.878906 -20.972656 3.457031 -20.492188 3.457031 -17.132812 L 3.457031 -6.09375 C 3.457031 -2.160156 3.023438 -1.054688 1.535156 -0.625 Z M 1.535156 0 "/></g></g></g><g fill="#000000" fill-opacity="1"><g transform="translate(245.009617, 200.626172)"><g><path d="M 1.824219 0 L 9.40625 0 L 9.40625 -0.625 C 7.917969 -1.054688 7.488281 -2.160156 7.488281 -6.09375 L 7.488281 -38.441406 L 7.054688 -38.777344 L 1.824219 -36.472656 L 1.824219 -35.945312 C 3.121094 -35.371094 3.742188 -34.890625 3.742188 -31.53125 L 3.742188 -6.09375 C 3.742188 -2.160156 3.261719 -1.054688 1.824219 -0.625 Z M 1.824219 0 "/></g></g></g><g fill="#000000" fill-opacity="1"><g transform="translate(251.487373, 200.626172)"><g><path d="M 1.824219 0 L 9.40625 0 L 9.40625 -0.625 C 7.917969 -1.054688 7.488281 -2.160156 7.488281 -6.09375 L 7.488281 -38.441406 L 7.054688 -38.777344 L 1.824219 -36.472656 L 1.824219 -35.945312 C 3.121094 -35.371094 3.742188 -34.890625 3.742188 -31.53125 L 3.742188 -6.09375 C 3.742188 -2.160156 3.261719 -1.054688 1.824219 -0.625 Z M 1.824219 0 "/></g></g></g><g fill="#000000" fill-opacity="1"><g transform="translate(257.96513, 200.626172)"><g><path d="M 13.101562 0.480469 C 18.238281 0.480469 21.980469 -2.925781 24.429688 -6.285156 L 23.996094 -6.71875 C 21.789062 -4.222656 19.148438 -2.542969 15.453125 -2.542969 C 9.214844 -2.542969 5.136719 -7.054688 5.136719 -13.628906 C 5.136719 -18.8125 8.160156 -22.796875 12.621094 -23.5625 C 16.460938 -20.539062 18.71875 -19.148438 19.917969 -19.148438 C 21.453125 -19.148438 22.941406 -20.636719 22.941406 -21.742188 C 22.941406 -23.035156 19.390625 -24.332031 14.78125 -24.332031 C 7.773438 -24.332031 1.726562 -18.859375 1.726562 -11.277344 C 1.726562 -3.550781 7.535156 0.480469 13.101562 0.480469 Z M 13.101562 0.480469 "/></g></g></g></svg>